<?xml version="1.0" encoding="UTF-8" standalone="no"?>
<svg
   xmlns:dc="http://purl.org/dc/elements/1.1/"
   xmlns:cc="http://creativecommons.org/ns#"
   xmlns:rdf="http://www.w3.org/1999/02/22-rdf-syntax-ns#"
   xmlns:svg="http://www.w3.org/2000/svg"
   xmlns="http://www.w3.org/2000/svg"
   xmlns:sodipodi="http://sodipodi.sourceforge.net/DTD/sodipodi-0.dtd"
   xmlns:inkscape="http://www.inkscape.org/namespaces/inkscape"
   inkscape:version="1.0 (1.0+r73)"
   sodipodi:docname="jitsi.svg"
   id="svg2"
   version="1.1"
   width="256"
   height="256"
   viewBox="0 0 256 256">
  <sodipodi:namedview
     inkscape:current-layer="svg2"
     inkscape:window-maximized="1"
     inkscape:window-y="32"
     inkscape:window-x="0"
     inkscape:cy="178.5"
     inkscape:cx="337.5"
     inkscape:zoom="1.6340741"
     showgrid="false"
     id="namedview105"
     inkscape:window-height="1019"
     inkscape:window-width="1920"
     inkscape:pageshadow="2"
     inkscape:pageopacity="0"
     guidetolerance="10"
     gridtolerance="10"
     objecttolerance="10"
     borderopacity="1"
     bordercolor="#666666"
     pagecolor="#ffffff" />
  <metadata
     id="metadata8">
    <rdf:RDF>
      <cc:Work
         rdf:about="">
        <dc:format>image/svg+xml</dc:format>
        <dc:type
           rdf:resource="http://purl.org/dc/dcmitype/StillImage" />
        <dc:title></dc:title>
      </cc:Work>
    </rdf:RDF>
  </metadata>
  <defs
     id="defs6" />
  <path
     style="fill:#1c75bb;stroke-width:0.449443"
     d="m 161.03597,4.559923e-4 c -0.3581,0.002861448 -0.72174,0.0186069277 -1.09143,0.0482851377 -4.56857,0.36672284 -8.51673,3.03212077 -10.67572,7.20688237 -0.82462,1.5945184 -1.03632,3.0126145 -1.32404,8.8645025 -0.37918,7.712034 -0.68396,9.98545 -1.57276,11.752517 -1.39789,2.779204 -6.70446,6.081994 -14.33038,8.917162 -5.31646,1.97656 -9.02441,4.318621 -12.81468,8.094952 -5.34561,5.325941 -7.48039,10.221212 -9.45118,21.667472 -0.48059,2.791286 -0.87631,6.515931 -0.87782,8.277822 -0.002,2.030463 -0.20863,3.361465 -0.56472,3.634165 -0.309,0.236632 -1.97697,0.801027 -3.70732,1.255279 -10.244252,2.689307 -18.705766,7.746835 -24.331652,14.542515 -2.848126,3.440342 -6.143807,9.82614 -7.146896,13.84904 -1.58341,6.35036 -1.547103,14.65735 0.09509,21.94253 0.957717,4.24863 1.218955,6.51076 0.756381,6.54852 -0.211357,0.0172 -2.305558,0.084 -4.653898,0.14776 -6.678996,0.18133 -11.198054,2.45551 -16.985775,8.54849 -6.227457,6.55588 -10.088118,15.16557 -11.743738,26.19116 -0.705341,4.6972 -0.593017,17.83826 0.212137,24.85688 0.854248,7.44656 2.464699,14.83566 4.542705,20.84671 1.036782,2.99908 4.639344,10.32948 10.583561,21.53141 4.95665,9.34084 9.072932,16.92218 9.146865,16.84826 0.07396,-0.0739 2.066494,-8.84699 4.428593,-19.49634 5.396294,-24.32885 6.508463,-28.02587 10.030529,-33.3366 2.443477,-3.68439 2.601749,-3.7034 8.2471,-1.02266 5.78904,2.74897 11.753663,4.35061 18.829198,5.05624 4.40868,0.43965 6.10567,0.40046 11.39262,-0.26189 15.59503,-1.95376 29.01235,-8.33656 39.47108,-18.77653 4.08647,-4.07913 4.50777,-4.37479 6.9728,-4.88652 9.5585,-1.98434 20.58439,-11.50928 27.52837,-23.78155 7.08147,-12.51525 10.79381,-26.75318 12.2207,-46.87255 1.5488,-21.83837 -4.19607,-36.279026 -17.41445,-43.770932 -1.3848,-0.784877 -3.89049,-1.859606 -5.56829,-2.389125 -1.67779,-0.529526 -3.23677,-1.206964 -3.46445,-1.505454 -0.41717,-0.546904 -2.3785,-7.747195 -2.36719,-8.690402 0.003,-0.279045 0.68265,-1.631365 1.50985,-3.005066 3.40857,-5.660483 5.09578,-13.834155 4.30716,-20.867194 -0.54698,-4.878109 -4.55288,-17.058301 -7.46585,-22.6989048 -3.26716,-6.3264392 -7.3511,-9.30973552 -12.7225,-9.2668362077 z M 160.92039,10.278247 c 2.43471,0 4.83424,4.542937 8.66406,16.403485 2.67594,8.287125 1.91241,15.703029 -2.29256,22.267321 -1.02269,1.596488 -2.37566,3.452761 -3.008,4.125742 l -1.14994,1.223091 1.40159,3.046031 c 0.77136,1.675358 1.7443,4.360943 2.16089,5.967702 0.76898,2.965992 1.01882,8.437434 0.46377,10.15928 -0.29212,0.906249 -0.12351,0.956616 4.08625,1.204072 11.48519,0.675108 18.60023,6.672023 21.76697,18.347857 0.91448,3.371728 1.0198,4.750401 0.99486,12.985862 -0.0389,12.85098 -1.4332,22.78717 -4.67878,33.33805 -4.58963,14.92019 -12.58936,26.21967 -22.49262,31.77263 -3.00045,1.6824 -5.30202,1.82763 -7.23175,0.45353 -0.737,-0.52479 -1.49131,-0.77758 -1.67663,-0.5618 -0.18534,0.21579 -1.32624,1.80724 -2.53544,3.53761 -11.69721,16.73854 -36.45769,25.82634 -56.161335,20.61262 -3.650906,-0.96605 -11.141109,-4.6409 -14.103602,-6.91867 l -2.419853,-1.86097 -3.097237,2.117 c -8.151904,5.56995 -13.180426,14.57395 -16.558573,29.64685 -0.554013,2.47193 -1.193121,4.84748 -1.419138,5.28007 -0.480695,0.92003 -1.42743,1.02337 -2.070187,0.2253 -1.109778,-1.37792 -3.71191,-7.22382 -4.975765,-11.17755 -2.885797,-9.02766 -4.152013,-18.09432 -4.179878,-29.93359 -0.01963,-8.33061 0.410349,-11.80838 2.13895,-17.3252 1.77745,-5.6727 4.019794,-9.57148 7.612145,-13.23163 4.813518,-4.90437 7.676738,-5.83956 13.358931,-4.36715 3.5651,0.92381 5.958203,2.16598 13.328203,6.92159 9.474521,6.11358 9.859732,6.25226 10.963937,3.92532 0.946272,-1.99413 1.6981,-5.45519 1.221631,-5.62243 -1.470951,-0.5163 -5.525143,-3.91922 -7.342944,-6.16375 -2.757736,-3.40511 -6.275455,-10.52019 -7.714556,-15.60175 -2.115827,-7.47108 -2.3186,-16.68544 -0.481338,-21.89278 2.780133,-7.87975 8.805031,-13.792381 17.762639,-17.433459 4.37119,-1.776782 7.12025,-2.530236 13.70713,-3.752675 2.96632,-0.550508 5.44163,-1.034505 5.49954,-1.075329 0.058,-0.04082 -0.21403,-1.577462 -0.60424,-3.414709 -0.88315,-4.158275 -0.64356,-13.458408 0.47403,-18.396136 2.5141,-11.107851 5.74608,-14.939029 15.9792,-18.937459 2.59555,-1.01416 5.73099,-2.35299 6.96696,-2.975805 5.51677,-2.779939 10.41417,-7.083204 12.32456,-10.827886 1.35049,-2.647166 2.28004,-7.921534 2.58518,-14.675656 0.28532,-6.315367 0.6906,-7.414629 2.73294,-7.414629 z m -7.55948,35.674521 c -0.13679,-0.04487 -0.72789,0.244789 -1.43084,0.711033 -0.80339,0.532837 -5.3046,2.864246 -10.00128,5.180584 -10.47397,5.165634 -11.88066,6.281106 -13.16434,10.431403 -0.52041,1.682533 -1.07674,3.798563 -1.23626,4.702182 l -0.28968,1.642984 5.77166,-2.443262 c 9.5204,-4.027756 10.17422,-4.367032 11.99976,-6.236894 2.42404,-2.482872 5.06194,-6.46725 6.86308,-10.365574 0.83446,-1.806087 1.51716,-3.417421 1.51716,-3.581498 0,-0.0205 -0.01,-0.03455 -0.0293,-0.04096 z m 4.72267,15.560779 c -0.331,0 -1.92668,1.268224 -3.54639,2.817797 -2.72959,2.611397 -2.94508,2.958315 -2.94508,4.741682 0,2.208861 0.89887,4.209937 2.34523,5.223019 3.0854,2.161094 6.19447,-1.082311 6.19447,-6.462208 0,-2.950509 -1.09212,-6.32029 -2.04823,-6.32029 z m -15.23453,8.539713 c -2.11444,0 -14.25153,5.527923 -15.72759,7.162996 -0.79428,0.879836 -0.8264,1.198229 -0.35258,3.457135 1.06851,5.094158 3.81998,9.390419 7.92523,12.375768 1.07821,0.784075 2.31847,1.274305 3.22452,1.274305 1.71422,0 6.54814,-2.408384 9.87692,-4.921639 2.21257,-1.670511 5.14547,-5.410751 5.14547,-6.561685 0,-0.298422 -0.61482,-0.797633 -1.36647,-1.108977 -3.94119,-1.632496 -6.39035,-4.765547 -7.63263,-9.767187 -0.27112,-1.091628 -0.73953,-1.910716 -1.09287,-1.910716 z m 33.12884,13.127767 c -0.12653,0.0078 -0.24623,0.03213 -0.35698,0.07461 -0.72594,0.278573 -2.00581,4.346936 -2.00581,6.374418 0,0.789244 1.13471,4.74631 2.5208,8.794276 3.9695,11.592529 6.25823,18.769539 7.14104,22.391659 0.99229,4.07121 1.28659,3.57349 1.98388,-3.35472 1.15476,-11.47374 0.42259,-21.112862 -2.02191,-26.640312 -1.80367,-4.078416 -5.36311,-7.756334 -7.26102,-7.639936 z m -10.1666,2.33353 c -0.0482,-0.01004 -0.10027,-0.0015 -0.158,0.02045 -1.35228,0.518911 -6.02775,4.012303 -10.24121,7.653111 -8.00583,6.917732 -14.27436,10.578522 -18.09476,10.568932 -2.27492,-0.006 -5.67708,-2.02712 -9.53017,-5.66193 l -3.12504,-2.948 -3.27719,0.507668 c -4.95281,0.766135 -12.51067,2.579959 -16.1811,3.884347 -6.751668,2.399375 -10.852856,5.538165 -13.037065,9.974935 -1.460292,2.96624 -1.474772,3.05235 -1.473274,9.51994 7.49e-4,5.91979 0.12042,6.90135 1.278687,10.57039 2.143347,6.78947 5.430213,12.24886 8.573362,14.24259 1.17984,0.74838 1.9139,0.84263 4.97869,0.63349 1.97754,-0.13495 6.02253,-0.75604 8.98885,-1.37963 6.18764,-1.3008 24.0449,-6.15319 24.0449,-6.53389 0,-0.44384 -5.65299,-3.9915 -7.92669,-4.97431 -7.77896,-3.36242 -15.05463,-3.51221 -27.37768,-0.56326 -2.9835,0.71396 -5.440503,1.07067 -6.150586,0.89244 -1.312935,-0.32952 -1.910843,-1.60635 -1.506914,-3.21573 0.370543,-1.47634 6.34872,-5.86646 11.75106,-8.63042 13.11167,-6.70823 26.74848,-7.80013 40.42352,-3.23476 8.12818,2.71358 13.64941,5.82817 26.96802,15.2126 1.73036,1.21921 3.30778,2.05789 3.50543,1.86243 0.89164,-0.8818 -2.75239,-14.84627 -7.10595,-27.23284 -4.72705,-13.449245 -4.78895,-13.678708 -4.84116,-17.654382 -0.0332,-2.528258 -0.14824,-3.44381 -0.48573,-3.514201 z M 128.85662,121.7977 c -5.3054,-0.0571 -5.81933,0.34178 -1.74393,1.25382 7.027,1.57258 13.43245,5.43588 19.76115,11.91783 4.5892,4.70035 5.71858,5.55656 8.08909,6.12864 3.09194,0.74618 11.27615,0.14661 14.18115,-1.03875 l 1.44986,-0.59107 -6.01744,-4.52076 c -7.19231,-5.40277 -10.19189,-7.26697 -15.1131,-9.39411 -6.42511,-2.7772 -9.81911,-3.47375 -18.03917,-3.70293 -0.9541,-0.0266 -1.8097,-0.0445 -2.56761,-0.0526 z m 15.03703,20.84087 -12.44308,4.22229 c -13.20364,4.4804 -22.52193,7.93072 -23.17732,8.58214 -0.21853,0.2172 -0.97334,1.82662 -1.67664,3.57711 -3.12838,7.78645 -8.644524,13.6864 -17.252042,18.45173 -1.483161,0.82111 -2.782468,1.56452 -2.88802,1.6503 -0.555856,0.45171 6.289389,4.86609 9.339981,6.02329 1.395609,0.5294 4.255721,1.34338 6.356871,1.80978 5.07009,1.12542 14.6466,0.90671 20.13275,-0.46087 17.48102,-4.35764 31.82605,-19.31134 33.60434,-35.02932 l 0.30724,-2.71392 -1.29186,-0.28821 c -4.28962,-0.95521 -7.39153,-2.3925 -9.52286,-4.4125 z m 33.99349,2.62759 c -0.37046,-0.0113 -1.60603,0.30403 -2.98311,0.77249 -1.57381,0.53537 -4.58037,1.32565 -6.6802,1.75563 l -3.81704,0.78126 -0.49158,4.25156 c -0.27032,2.33774 -0.85619,5.59763 -1.3021,7.24492 -0.65887,2.4341 -0.70473,3.12301 -0.24286,3.67952 0.31256,0.37663 0.75245,0.6847 0.9773,0.6847 0.75237,-1e-5 7.38902,-6.93086 9.46727,-9.88715 2.43298,-3.46088 5.49571,-8.93854 5.17621,-9.25806 -0.0155,-0.0155 -0.0509,-0.0233 -0.10389,-0.0249 z M 68.654405,156.7963 c -1.015876,0 -4.487739,4.3947 -6.187157,7.8316 -3.475676,7.02922 -4.834184,15.70957 -3.947254,25.21532 0.29915,3.20616 0.660059,6.68885 0.801739,7.73943 0.141679,1.05057 0.327598,1.91072 0.414041,1.91072 0.08644,0 0.744547,-1.16382 1.463026,-2.58518 2.350968,-4.65096 6.31348,-9.51633 10.814717,-13.28138 l 1.995578,-1.66932 -1.384028,-1.45718 C 69.877533,177.60495 69.694497,176.8 69.761914,167.93435 69.82779,159.27316 69.581096,156.7963 68.654405,156.7963 Z m 11.249238,4.21645 c -0.05879,-0.003 -0.100645,0.005 -0.122901,0.0278 -0.752599,0.75135 -1.774917,11.9088 -1.148475,12.53525 0.164796,0.16479 0.474581,0.29844 0.687625,0.29844 0.847521,0 5.690133,-2.71672 8.396323,-4.71095 l 2.866082,-2.11261 -2.416932,-1.35476 c -1.329285,-0.74517 -3.686784,-2.16968 -5.239107,-3.16601 -1.358284,-0.87178 -2.611143,-1.49441 -3.022615,-1.51715 z"
     id="path1016-3" />
</svg>
